Coordinates
version=1
nRows=65
nColumns=12
inDegrees=yes

Units are S.I. units (second, meters, Newtons, ...)
Angles are in degrees

endheader
time	SC_y	SC_z	SC_x	AC_y	AC_z	AC_x	GH_y	GH_z	GH_yy	EL_x	PS_y
       0.0              -40.74           37.7          72.14          69.59          7.039         -5.026          30.34          71.62          103.1          118.0          39.78
   0.02682              -40.73           37.7          72.14          69.59          7.036         -5.023          30.32          71.61          103.1          118.0          39.79
   0.05364              -40.73           37.7          72.14          69.59          7.034         -5.019          30.31          71.61          103.1          118.0           39.8
   0.08045              -40.72           37.7          72.14          69.59          7.031         -5.016           30.3          71.61          103.1          118.0          39.82
    0.1073              -40.72          37.69          72.14          69.59          7.028         -5.012          30.29          71.61          103.1          118.0          39.83
    0.1341              -40.71          37.69          72.14          69.58          7.025         -5.008          30.27           71.6          103.1          118.0          39.84
    0.1609              -40.71          37.69          72.14          69.58          7.021         -5.003          30.26           71.6          103.1          117.9          39.86
    0.1877               -40.7          37.68          72.14          69.58          7.017         -4.999          30.24          71.59          103.0          117.9          39.87
    0.2145               -40.7          37.68          72.14          69.57          7.013         -4.994          30.22          71.59          103.0          117.9          39.89
    0.2414              -40.69          37.68          72.14          69.57          7.009         -4.988          30.21          71.59          103.0          117.9          39.91
    0.2682              -40.68          37.67          72.14          69.57          7.005         -4.982          30.19          71.58          103.0          117.9          39.93
     0.295              -40.67          37.67          72.14          69.56            7.0         -4.976          30.16          71.58          103.0          117.9          39.95
    0.3218              -40.66          37.66          72.14          69.56          6.994          -4.97          30.14          71.57          103.0          117.8          39.97
    0.3486              -40.66          37.66          72.14          69.56          6.989         -4.962          30.12          71.56          103.0          117.8          39.99
    0.3754              -40.65          37.65          72.14          69.55          6.982         -4.955          30.09          71.56          102.9          117.8          40.02
    0.4023              -40.63          37.65          72.15          69.55          6.976         -4.946          30.06          71.55          102.9          117.8          40.05
    0.4291              -40.62          37.64          72.15          69.54          6.968         -4.937          30.03          71.54          102.9          117.7          40.08
    0.4559              -40.61          37.63          72.15          69.54           6.96         -4.927          29.99          71.54          102.9          117.7          40.11
    0.4827               -40.6          37.63          72.15          69.53          6.952         -4.916          29.95          71.53          102.8          117.7          40.14
    0.5095              -40.58          37.62          72.15          69.52          6.942         -4.904          29.91          71.52          102.8          117.6          40.18
    0.5364              -40.56          37.61          72.15          69.51          6.932         -4.891          29.87          71.51          102.8          117.6          40.23
    0.5632              -40.55           37.6          72.15          69.51           6.92         -4.876          29.82          71.49          102.7          117.6          40.28
      0.59              -40.53          37.59          72.16           69.5          6.908          -4.86          29.76          71.48          102.7          117.5          40.33
    0.6168               -40.5          37.58          72.16          69.49          6.894         -4.842           29.7          71.47          102.6          117.5          40.39
    0.6436              -40.48          37.56          72.16          69.47          6.878         -4.823          29.63          71.45          102.6          117.4          40.45
    0.6704              -40.45          37.55          72.16          69.46           6.86         -4.801          29.56          71.43          102.5          117.3          40.52
    0.6973              -40.42          37.53          72.17          69.45          6.841         -4.776          29.47          71.41          102.5          117.3           40.6
    0.7241              -40.38          37.51          72.17          69.43          6.819         -4.748          29.37          71.39          102.4          117.2           40.7
    0.7509              -40.34          37.49          72.17          69.41          6.794         -4.717          29.26          71.36          102.3          117.1           40.8
    0.7777               -40.3          37.47          72.18          69.39          6.766         -4.681          29.14          71.33          102.2          117.0          40.92
    0.8045              -40.25          37.44          72.18          69.37          6.734         -4.641           29.0           71.3          102.1          116.8          41.05
    0.8313              -40.19          37.41          72.19          69.34          6.697         -4.594          28.84          71.26          102.0          116.7           41.2
    0.8582              -40.12          37.37           72.2          69.31          6.654          -4.54          28.65          71.22          101.9          116.5          41.38
     0.885              -40.04          37.33           72.2          69.27          6.605         -4.478          28.44          71.16          101.7          116.3          41.59
    0.9118              -39.95          37.28          72.21          69.23          6.547         -4.405          28.18           71.1          101.5          116.1          41.83
    0.9386              -39.84          37.22          72.22          69.18          6.478         -4.319          27.88          71.03          101.3          115.9          42.11
    0.9654               -39.7          37.15          72.24          69.12          6.397         -4.216          27.53          70.95          101.0          115.6          42.45
    0.9922              -39.55          37.07          72.25          69.05          6.299         -4.093           27.1          70.85          100.7          115.2          42.85
     1.019              -39.36          36.97          72.27          68.96          6.182         -3.945          26.59          70.72          100.3          114.7          43.34
     1.046              -39.13          36.84          72.29          68.85          6.038         -3.763          25.96          70.57          99.83          114.2          43.94
     1.073              -38.84          36.69          72.32          68.72           5.86         -3.539          25.18          70.39          99.25          113.5          44.68
       1.1              -38.49           36.5          72.35          68.56          5.638          -3.26          24.21          70.16          98.53          112.6          45.59
     1.126              -38.04          36.26           72.4          68.35          5.359         -2.908          22.99          69.87          97.61          111.6          46.75
     1.153              -37.47          35.96          72.45          68.09          5.005          -2.46          21.44           69.5          96.45          110.2          48.22
      1.18              -36.74          35.57          72.52          67.75           4.55         -1.888          19.45          69.03          94.96          108.5          50.11
     1.207               -35.8          35.07          72.62          67.32          3.968         -1.153           16.9          68.42          93.05          106.2          52.53
     1.234              -34.61          34.43          72.73          66.77          3.223         -0.214          13.65          67.65          90.61          103.4          55.62
      1.26              -33.11          33.63          72.88          66.07          2.287         0.9664          9.553          66.67          87.54          99.77           59.5
     1.287              -31.27          32.65          73.06          65.23          1.147          2.405          4.565          65.48           83.8          95.39          64.23
     1.314              -29.15          31.51          73.26          64.25        -0.1754          4.072         -1.218          64.11          79.47          90.32          69.72
     1.341              -26.85          30.29          73.49          63.19         -1.607          5.877         -7.479          62.62          74.77          84.82          75.66
     1.368              -24.55          29.06          73.71          62.13         -3.039          7.683         -13.74          61.13          70.08          79.33           81.6
     1.395              -22.43          27.92          73.92          61.15         -4.361           9.35         -19.52          59.75          65.75          74.25          87.08
     1.421               -20.6          26.95          74.09           60.3         -5.501          10.79         -24.51          58.56          62.01          69.87          91.82
     1.448              -19.09          26.14          74.24          59.61         -6.437          11.97         -28.61          57.59          58.94          66.28           95.7
     1.475               -17.9           25.5          74.36          59.06         -7.182          12.91         -31.86          56.82           56.5          63.42          98.79
     1.502              -16.96           25.0          74.45          58.62         -7.764          13.64         -34.41          56.21          54.59          61.18          101.2
     1.529              -16.23          24.62          74.52          58.29         -8.219          14.22          -36.4          55.74           53.1          59.44          103.1
     1.555              -15.66          24.31          74.57          58.02         -8.573          14.66         -37.95          55.37          51.94          58.08          104.6
     1.582              -15.21          24.07          74.62          57.82         -8.852          15.01         -39.17          55.08          51.02           57.0          105.7
     1.609              -14.86          23.88          74.65          57.65         -9.074          15.29         -40.14          54.85           50.3          56.15          106.6
     1.636              -14.57          23.73          74.68          57.52         -9.252          15.52         -40.92          54.66          49.72          55.47          107.4
     1.663              -14.34          23.61           74.7          57.42         -9.396           15.7         -41.54          54.51          49.24          54.92          108.0
      1.69              -14.15           23.5          74.72          57.33         -9.513          15.85         -42.06          54.39          48.86          54.47          108.5
     1.716               -14.0          23.42          74.74          57.26         -9.611          15.97         -42.49          54.29          48.54          54.09          108.9
